<svg xmlns="http://www.w3.org/2000/svg" viewBox="0 0 128 128" role="img" aria-labelledby="title desc">
  <title id="title">Mineradio</title>
  <desc id="desc">Mineradio 的 MR 字母与音频波形标志</desc>
  <defs>
    <linearGradient id="surface" x1="16" y1="8" x2="112" y2="120" gradientUnits="userSpaceOnUse">
      <stop stop-color="#17242d"/>
      <stop offset="1" stop-color="#070b0e"/>
    </linearGradient>
    <linearGradient id="signal" x1="28" y1="91" x2="101" y2="91" gradientUnits="userSpaceOnUse">
      <stop stop-color="#7fe8ff"/>
      <stop offset="1" stop-color="#8fffd8"/>
    </linearGradient>
  </defs>
  <rect x="4" y="4" width="120" height="120" rx="30" fill="url(#surface)" stroke="#ffffff" stroke-opacity=".22" stroke-width="2"/>
  <path d="M28 76V38h10l13 22 13-22h10v38H63V56L51 75 39 56v20H28Zm52 0V38h18c12 0 20 6 20 17 0 7-3 12-9 15l11 18h-13L98 73h-7v3H80Zm11-13h7c6 0 9-3 9-8s-3-7-9-7h-7v15Z" fill="#f8fbfc"/>
  <g fill="url(#signal)">
    <rect x="28" y="91" width="6" height="13" rx="3"/>
    <rect x="39" y="85" width="6" height="25" rx="3"/>
    <rect x="50" y="89" width="6" height="17" rx="3"/>
    <rect x="61" y="81" width="6" height="33" rx="3"/>
    <rect x="72" y="87" width="6" height="21" rx="3"/>
    <rect x="83" y="83" width="6" height="29" rx="3"/>
    <rect x="94" y="90" width="6" height="15" rx="3"/>
  </g>
</svg>
